<svg width="51" height="51" viewBox="0 0 51 51" fill="none" xmlns="http://www.w3.org/2000/svg">
<path d="M30.599 27.4142C29.812 26.6253 28.7222 26.1377 27.5206 26.1377H23.5849C21.8265 26.1377 20.4 27.5652 20.4 29.3247C20.4 31.0862 21.826 32.5117 23.5849 32.5117H27.412C29.1705 32.5117 30.599 33.9387 30.599 35.7002C30.599 37.4612 29.1705 38.8872 27.412 38.8872H23.4763M23.4763 38.8872C22.2748 38.8872 21.1869 38.3996 20.4 37.6127C21.1864 38.3996 22.2742 38.8872 23.4763 38.8872Z" stroke="#E85838" stroke-width="2" stroke-miterlimit="10" stroke-linecap="round" stroke-linejoin="round"/>
<path d="M25.4985 38.8882V41.4372" stroke="#E85838" stroke-width="2" stroke-miterlimit="10" stroke-linecap="round" stroke-linejoin="round"/>
<path d="M25.4985 23.5889V26.1373" stroke="#E85838" stroke-width="2" stroke-miterlimit="10" stroke-linecap="round" stroke-linejoin="round"/>
<path d="M43.35 35.6992C43.35 27.0001 38.5831 19.5771 31.8745 16.644V16.6456C28.354 20.1666 22.645 20.1656 19.1245 16.6446C12.416 19.5791 7.65155 27.0001 7.65155 35.6992L7.65002 35.7002C7.65002 41.3331 15.6402 45.9002 25.4985 45.9002C35.3563 45.9002 43.348 41.3331 43.348 35.7002L43.35 35.6992Z" stroke="#E85838" stroke-width="2" stroke-miterlimit="10" stroke-linecap="round" stroke-linejoin="round"/>
<path d="M31.8745 16.6429C31.8745 14.7936 32.1973 13.0234 32.7644 11.3654C28.6452 15.1113 22.3492 15.1098 18.231 11.3618C18.8149 13.0724 19.124 14.8568 19.124 16.6439C22.645 20.1649 28.3534 20.1659 31.874 16.6449L31.8745 16.6429Z" stroke="#E85838" stroke-width="2" stroke-miterlimit="10" stroke-linecap="round" stroke-linejoin="round"/>
<path d="M35.6979 5.10112C34.7748 5.10112 33.8533 5.45251 33.1484 6.15682C31.7398 4.74871 29.4581 4.74871 28.0495 6.15682C26.6403 4.74871 24.3586 4.74871 22.949 6.15682C21.5398 4.74871 19.2576 4.74871 17.849 6.15682C17.1462 5.45251 16.2226 5.10112 15.2995 5.10112H14.3458C16.1675 6.92386 17.4512 9.07657 18.2315 11.3619C22.3497 15.1099 28.6451 15.1114 32.7649 11.3654C33.5794 8.98324 34.9151 6.84226 36.6572 5.1001L35.6979 5.10112Z" stroke="#E85838" stroke-width="2" stroke-miterlimit="10" stroke-linecap="round" stroke-linejoin="round"/>
</svg>
