<svg width="51" height="67" viewBox="0 0 51 67" fill="none" xmlns="http://www.w3.org/2000/svg">
<path d="M13.6886 28.6699V28.4949H13.5136H11.6523H11.4773V28.6699V37.9202V38.0952H11.6523H13.5136H13.6886V37.9202V28.6699Z" fill="#E85838" stroke="#E85838" stroke-width="0.35"/>
<path d="M17.3803 32.3677V32.1927H17.2053H7.95508H7.78008V32.3677V34.2289V34.4039H7.95508H17.2053H17.3803V34.2289V32.3677Z" fill="#E85838" stroke="#E85838" stroke-width="0.35"/>
<path d="M15.313 50.3666L15.1893 50.2429L15.0656 50.3666L8.5247 56.9075L8.40095 57.0312L8.5247 57.155L9.84076 58.4711L9.96451 58.5948L10.0882 58.4711L16.6291 51.9302L16.7529 51.8065L16.6291 51.6827L15.313 50.3666Z" fill="#E85838" stroke="#E85838" stroke-width="0.35"/>
<path d="M10.0941 50.3659L9.97037 50.2421L9.84662 50.3659L8.53055 51.6819L8.40681 51.8057L8.53055 51.9294L15.0714 58.4703L15.1952 58.594L15.3189 58.4703L16.635 57.1542L16.7587 57.0305L16.635 56.9067L10.0941 50.3659Z" fill="#E85838" stroke="#E85838" stroke-width="0.35"/>
<path d="M38.685 32.3677V32.1927H38.51H29.2598H29.0848V32.3677V34.2289V34.4039H29.2598H38.51H38.685V34.2289V32.3677Z" fill="#E85838" stroke="#E85838" stroke-width="0.35"/>
<path d="M36.6197 50.5688L36.4959 50.4451L36.3722 50.5688L29.8313 57.1097L29.7076 57.2334L29.8313 57.3571L31.1474 58.6732L31.2711 58.797L31.3949 58.6732L37.9357 52.1323L38.0595 52.0086L37.9357 51.8849L36.6197 50.5688Z" fill="#E85838" stroke="#E85838" stroke-width="0.35"/>
<path d="M31.1402 53.2771C31.9118 53.2771 32.5374 52.6516 32.5374 51.8799C32.5374 51.1083 31.9118 50.4827 31.1402 50.4827C30.3685 50.4827 29.743 51.1083 29.743 51.8799C29.743 52.6516 30.3685 53.2771 31.1402 53.2771Z" fill="#E85838" stroke="#E85838" stroke-width="0.35"/>
<path d="M36.6304 58.3582C37.4021 58.3582 38.0276 57.7326 38.0276 56.961C38.0276 56.1893 37.4021 55.5638 36.6304 55.5638C35.8588 55.5638 35.2332 56.1893 35.2332 56.961C35.2332 57.7326 35.8588 58.3582 36.6304 58.3582Z" fill="#E85838" stroke="#E85838" stroke-width="0.35"/>
<path d="M4.38742 66.175H42.0771C44.0412 66.175 45.6395 64.5767 45.6395 62.6126V4.38742C45.6395 2.42335 44.0412 0.825 42.0771 0.825H4.38742C2.42335 0.825 0.825 2.42335 0.825 4.38742V62.6126C0.825 64.5767 2.42335 66.175 4.38742 66.175ZM3.03622 4.38742C3.03622 3.64032 3.64032 3.03622 4.38742 3.03622H42.0771C42.8242 3.03622 43.4283 3.64032 43.4283 4.38742V62.6126C43.4283 63.3597 42.8242 63.9638 42.0771 63.9638H4.38742C3.64032 63.9638 3.03622 63.3597 3.03622 62.6126V4.38742Z" fill="#E85838" stroke="#E85838" stroke-width="0.35"/>
<path d="M45.4645 23.7146H45.6395V23.5396V7.35938V7.18438H45.4645H1H0.825V7.35938V23.5396V23.7146H1H45.4645ZM43.4283 21.5034H3.03622V9.39559H43.4283V21.5034Z" fill="#E85838" stroke="#E85838" stroke-width="0.35"/>
<path d="M44.71 43.0142V42.8392H44.535H1.93164H1.75664V43.0142V44.8754V45.0504H1.93164H44.535H44.71V44.8754V43.0142Z" fill="#E85838" stroke="#E85838" stroke-width="0.35"/>
<path d="M24.335 22.2114V22.0364H24.16H22.2988H22.1238V22.2114V65.0691V65.2441H22.2988H24.16H24.335V65.0691V22.2114Z" fill="#E85838" stroke="#E85838" stroke-width="0.35"/>
<path d="M38.5116 16.5553H38.6866V16.3803V14.519V14.344H38.5116H36.03H35.855V14.519V16.3803V16.5553H36.03H38.5116ZM33.5484 16.5553H33.7234V16.3803V14.519V14.344H33.5484H31.0668H30.8918V14.519V16.3803V16.5553H31.0668H33.5484ZM28.5851 16.5553H28.7601V16.3803V14.519V14.344H28.5851H26.1035H25.9285V14.519V16.3803V16.5553H26.1035H28.5851Z" fill="#E85838" stroke="#E85838" stroke-width="0.35"/>
<path d="M50.2167 32.8157H50.3917V32.6407V30.1591V29.9841H50.2167H48.3555H48.1805V30.1591V32.6407V32.8157H48.3555H50.2167ZM50.2167 27.8524H50.3917V27.6774V25.1958V25.0208H50.2167H48.3555H48.1805V25.1958V27.6774V27.8524H48.3555H50.2167Z" fill="#E85838" stroke="#E85838" stroke-width="0.35"/>
<path d="M50.3917 32.6406V32.4656H50.2167H48.3555H48.1805V32.6406V62.5877V62.7626H48.3555H50.2167H50.3917V62.5877V32.6406Z" fill="#E85838" stroke="#E85838" stroke-width="0.35"/>
</svg>
