<svg width="40" height="40" viewBox="0 0 40 40" fill="none" xmlns="http://www.w3.org/2000/svg">
<path d="M24.3339 26.3562V26.4812H24.4589H30.8671C32.672 26.4812 34.125 25.0486 34.125 23.2625L34.125 5.09375C34.125 3.30761 32.672 1.875 30.8671 1.875H10.1329C8.32802 1.875 6.875 3.30761 6.875 5.09375V23.2625C6.875 25.0486 8.32802 26.4812 10.1329 26.4812L16.5981 26.4812H16.7231V26.3562V25.2594V25.1344H16.5981L10.1329 25.1344C9.0897 25.1344 8.23576 24.2889 8.23576 23.2625V5.09375C8.23576 4.06739 9.0897 3.22187 10.1329 3.22187H30.8671C31.9103 3.22187 32.7642 4.06739 32.7642 5.09375L32.7642 23.2625C32.7642 24.2889 31.9103 25.1344 30.8671 25.1344H24.4589H24.3339V25.2594V26.3562ZM27.2427 29.4787L21.0522 36.3254L21.0522 13.0531V12.9281H20.9272H19.8165H19.6915V13.0531L19.6915 36.3252L13.5289 29.5906L13.4459 29.4999L13.3538 29.5814L12.5279 30.3127L12.433 30.3967L12.5184 30.4904L18.8981 37.4936L18.898 37.4937L18.9027 37.4983C19.2937 37.8845 19.8086 38.125 20.3861 38.125C20.9334 38.125 21.4805 37.8855 21.8467 37.4642L28.2541 30.3776L28.3388 30.2839L28.2443 30.2002L27.4183 29.4689L27.3257 29.3869L27.2427 29.4787Z" fill="white" stroke="white" stroke-width="0.25"/>
</svg>
