<svg width="65" height="65" viewBox="0 0 65 65" fill="none" xmlns="http://www.w3.org/2000/svg">
<path d="M32.501 54.4907C36.8586 54.4963 41.12 53.2091 44.7459 50.7921C48.3718 48.3752 51.1994 44.937 52.8708 40.9127C54.5422 36.8883 54.9824 32.4586 54.1356 28.184C53.2889 23.9095 51.1932 19.9821 48.1139 16.8988C45.0345 13.8156 41.1098 11.715 36.8363 10.8628C32.5628 10.0106 28.1325 10.4452 24.106 12.1115C20.0796 13.7778 16.6378 16.601 14.2163 20.2239C11.7947 23.8468 10.5022 28.1065 10.5022 32.4641C10.5077 38.2994 12.8263 43.8946 16.9499 48.0234C21.0735 52.1522 26.6657 54.4778 32.501 54.4907ZM32.501 12.8756C36.3764 12.8701 40.1664 14.0143 43.3913 16.1633C46.6163 18.3124 49.1314 21.3697 50.6182 24.9486C52.1051 28.5274 52.497 32.4669 51.7443 36.2685C50.9917 40.0702 49.1282 43.5631 46.3898 46.3054C43.6515 49.0477 40.1612 50.9161 36.3606 51.6742C32.5601 52.4323 28.62 52.046 25.0391 50.5642C21.4581 49.0824 18.3972 46.5717 16.2435 43.3498C14.0899 40.1279 12.9403 36.3395 12.9403 32.4641C12.9458 27.2754 15.0076 22.3004 18.6739 18.6289C22.3402 14.9573 27.3123 12.8885 32.501 12.8756Z" fill="#E85838"/>
<path d="M32.501 54.4907C36.8586 54.4963 41.12 53.2091 44.7459 50.7921C48.3718 48.3752 51.1994 44.937 52.8708 40.9127C54.5422 36.8883 54.9824 32.4586 54.1356 28.184C53.2889 23.9095 51.1932 19.9821 48.1139 16.8988C45.0345 13.8156 41.1098 11.715 36.8363 10.8628C32.5628 10.0106 28.1325 10.4452 24.106 12.1115C20.0796 13.7778 16.6378 16.601 14.2163 20.2239C11.7947 23.8468 10.5022 28.1065 10.5022 32.4641C10.5077 38.2994 12.8263 43.8946 16.9499 48.0234C21.0735 52.1522 26.6657 54.4778 32.501 54.4907ZM32.501 12.8756C36.3764 12.8701 40.1664 14.0143 43.3913 16.1633C46.6163 18.3124 49.1314 21.3697 50.6182 24.9486C52.1051 28.5274 52.497 32.4669 51.7443 36.2685C50.9917 40.0702 49.1282 43.5631 46.3898 46.3054C43.6515 49.0477 40.1612 50.9161 36.3606 51.6742C32.5601 52.4323 28.62 52.046 25.0391 50.5642C21.4581 49.0824 18.3972 46.5717 16.2435 43.3498C14.0899 40.1279 12.9403 36.3395 12.9403 32.4641C12.9458 27.2754 15.0076 22.3004 18.6739 18.6289C22.3402 14.9573 27.3123 12.8885 32.501 12.8756Z" stroke="#E85838"/>
<path d="M54.1445 8.25707C48.085 2.8446 40.2172 -0.100542 32.0931 0.00262133C23.969 0.105785 16.1785 3.24976 10.2584 8.81436L9.9937 4.11924C9.97043 3.79831 9.82263 3.49919 9.58185 3.28574C9.34107 3.07229 9.02638 2.96143 8.70498 2.97681C8.54571 2.9857 8.38977 3.02594 8.24609 3.09522C8.10241 3.1645 7.97382 3.26145 7.86768 3.38053C7.76155 3.49961 7.67996 3.63846 7.6276 3.78914C7.57524 3.93981 7.55313 4.09933 7.56255 4.25857L7.96658 11.4754C7.92854 11.6774 7.94252 11.8858 8.00719 12.081C8.07187 12.2761 8.18512 12.4516 8.33629 12.5909C8.48746 12.7302 8.67158 12.8288 8.87134 12.8774C9.07111 12.926 9.27994 12.9229 9.47821 12.8686L16.7229 12.4576C16.888 12.4563 17.0512 12.4215 17.2025 12.3552C17.3538 12.2889 17.49 12.1926 17.6029 12.0721C17.7159 11.9516 17.8031 11.8094 17.8594 11.6541C17.9157 11.4988 17.9399 11.3337 17.9304 11.1688C17.921 11.0039 17.8781 10.8427 17.8045 10.6949C17.7308 10.547 17.6279 10.4157 17.5019 10.3089C17.3759 10.2021 17.2296 10.1219 17.0717 10.0734C16.9139 10.0248 16.7478 10.0089 16.5836 10.0264L12.2995 10.2494C17.7986 5.25237 24.9537 2.46927 32.3839 2.43711C39.8142 2.40495 46.9931 5.12601 52.5353 10.0752C66.14 22.224 65.7081 43.4565 52.5353 54.9087C47.8421 59.1118 41.9466 61.7337 35.6821 62.4036C29.4176 63.0735 23.101 61.7577 17.6252 58.642C12.1493 55.5264 7.79108 50.7685 5.16662 45.0409C2.54216 39.3134 1.78417 32.9059 2.99979 26.724C3.03043 26.5667 3.02979 26.4049 2.99789 26.2478C2.96599 26.0907 2.90346 25.9414 2.81387 25.8085C2.72428 25.6755 2.60938 25.5616 2.47574 25.473C2.3421 25.3845 2.19234 25.3232 2.03499 25.2925C1.87765 25.2619 1.71581 25.2625 1.55871 25.2944C1.40162 25.3263 1.25234 25.3889 1.11941 25.4785C0.986486 25.568 0.872504 25.6829 0.783978 25.8166C0.695452 25.9502 0.634115 26.1 0.603469 26.2573C-0.706674 32.9373 0.114471 39.8601 2.95097 46.0483C5.78747 52.2365 10.496 57.3774 16.4118 60.7452C22.3277 64.113 29.1519 65.5376 35.921 64.8178C42.6901 64.0981 49.0622 61.2703 54.1375 56.7338C68.3273 44.4039 68.9194 21.4508 54.1445 8.25707Z" fill="#E85838"/>
<path d="M54.1445 8.25707C48.085 2.8446 40.2172 -0.100542 32.0931 0.00262133C23.969 0.105785 16.1785 3.24976 10.2584 8.81436L9.9937 4.11924C9.97043 3.79831 9.82263 3.49919 9.58185 3.28574C9.34107 3.07229 9.02638 2.96143 8.70498 2.97681C8.54571 2.9857 8.38977 3.02594 8.24609 3.09522C8.10241 3.1645 7.97382 3.26145 7.86768 3.38053C7.76155 3.49961 7.67996 3.63846 7.6276 3.78914C7.57524 3.93981 7.55313 4.09933 7.56255 4.25857L7.96658 11.4754C7.92854 11.6774 7.94252 11.8858 8.00719 12.081C8.07187 12.2761 8.18512 12.4516 8.33629 12.5909C8.48746 12.7302 8.67158 12.8288 8.87134 12.8774C9.07111 12.926 9.27994 12.9229 9.47821 12.8686L16.7229 12.4576C16.888 12.4563 17.0512 12.4215 17.2025 12.3552C17.3538 12.2889 17.49 12.1926 17.6029 12.0721C17.7159 11.9516 17.8031 11.8094 17.8594 11.6541C17.9157 11.4988 17.9399 11.3337 17.9304 11.1688C17.921 11.0039 17.8781 10.8427 17.8045 10.6949C17.7308 10.547 17.6279 10.4157 17.5019 10.3089C17.3759 10.2021 17.2296 10.1219 17.0717 10.0734C16.9139 10.0248 16.7478 10.0089 16.5836 10.0264L12.2995 10.2494C17.7986 5.25237 24.9537 2.46927 32.3839 2.43711C39.8142 2.40495 46.9931 5.12601 52.5353 10.0752C66.14 22.224 65.7081 43.4565 52.5353 54.9087C47.8421 59.1118 41.9466 61.7337 35.6821 62.4036C29.4176 63.0735 23.101 61.7577 17.6252 58.642C12.1493 55.5264 7.79108 50.7685 5.16662 45.0409C2.54216 39.3134 1.78417 32.9059 2.99979 26.724C3.03043 26.5667 3.02979 26.4049 2.99789 26.2478C2.96599 26.0907 2.90346 25.9414 2.81387 25.8085C2.72428 25.6755 2.60938 25.5616 2.47574 25.473C2.3421 25.3845 2.19234 25.3232 2.03499 25.2925C1.87765 25.2619 1.71581 25.2625 1.55871 25.2944C1.40162 25.3263 1.25234 25.3889 1.11941 25.4785C0.986486 25.568 0.872504 25.6829 0.783978 25.8166C0.695452 25.9502 0.634115 26.1 0.603469 26.2573C-0.706674 32.9373 0.114471 39.8601 2.95097 46.0483C5.78747 52.2365 10.496 57.3774 16.4118 60.7452C22.3277 64.113 29.1519 65.5376 35.921 64.8178C42.6901 64.0981 49.0622 61.2703 54.1375 56.7338C68.3273 44.4039 68.9194 21.4508 54.1445 8.25707Z" stroke="#E85838"/>
<path d="M32.9887 40.2104H31.282C30.8044 40.2103 30.3358 40.0807 29.9261 39.8353C29.5164 39.59 29.1809 39.2381 28.9553 38.8172C28.7483 38.4342 28.6405 38.0055 28.6418 37.5702C28.6418 37.2469 28.5134 36.9369 28.2848 36.7082C28.0562 36.4796 27.7461 36.3512 27.4228 36.3512C27.0995 36.3512 26.7894 36.4796 26.5608 36.7082C26.3322 36.9369 26.2037 37.2469 26.2037 37.5702C26.2074 38.9159 26.7436 40.2055 27.6952 41.157C28.6467 42.1086 29.9363 42.6448 31.282 42.6485V43.77C31.282 44.0933 31.4104 44.4034 31.639 44.632C31.8677 44.8606 32.1777 44.9891 32.501 44.9891C32.8244 44.9891 33.1344 44.8606 33.363 44.632C33.5917 44.4034 33.7201 44.0933 33.7201 43.77V42.5928C35.1292 42.4056 36.4227 41.7136 37.3604 40.6452C38.2981 39.5769 38.8164 38.2046 38.8192 36.7831C38.8203 35.634 38.4347 34.518 37.7246 33.6145C37.0145 32.7111 36.0211 32.0728 34.9043 31.8024L30.669 30.7644C30.082 30.6246 29.5596 30.2904 29.1865 29.8162C28.8135 29.342 28.6117 28.7555 28.614 28.1522V27.365C28.6158 26.666 28.8948 25.9963 29.3897 25.5026C29.8846 25.009 30.5551 24.7318 31.2541 24.7318H33.741C34.0874 24.7309 34.4305 24.7983 34.7508 24.9303C35.0711 25.0622 35.3622 25.256 35.6074 25.5006C35.8527 25.7452 36.0473 26.0358 36.18 26.3557C36.3128 26.6756 36.3811 27.0186 36.3811 27.365C36.3811 27.6883 36.5096 27.9984 36.7382 28.227C36.9668 28.4556 37.2769 28.5841 37.6002 28.5841C37.9235 28.5841 38.2336 28.4556 38.4622 28.227C38.6908 27.9984 38.8192 27.6883 38.8192 27.365C38.8174 26.0194 38.2815 24.7295 37.3294 23.7786C36.3772 22.8278 35.0866 22.2937 33.741 22.2937V21.1722C33.741 20.8489 33.6126 20.5388 33.3839 20.3102C33.1553 20.0816 32.8452 19.9531 32.5219 19.9531C32.1986 19.9531 31.8886 20.0816 31.6599 20.3102C31.4313 20.5388 31.3029 20.8489 31.3029 21.1722V22.2937C29.959 22.2974 28.6713 22.8329 27.721 23.7831C26.7708 24.7334 26.2353 26.0211 26.2316 27.365V28.1522C26.2228 29.3023 26.6015 30.4218 27.3066 31.3305C28.0118 32.2391 29.0023 32.8838 30.1187 33.1607L34.354 34.1917C34.9462 34.3271 35.4751 34.6589 35.8546 35.1333C36.2341 35.6076 36.4418 36.1965 36.4438 36.804C36.4365 37.7136 36.0685 38.5831 35.4207 39.2218C34.773 39.8604 33.8983 40.2159 32.9887 40.2104Z" fill="#E85838"/>
<path d="M32.9887 40.2104H31.282C30.8044 40.2103 30.3358 40.0807 29.9261 39.8353C29.5164 39.59 29.1809 39.2381 28.9553 38.8172C28.7483 38.4342 28.6405 38.0055 28.6418 37.5702C28.6418 37.2469 28.5134 36.9369 28.2848 36.7082C28.0562 36.4796 27.7461 36.3512 27.4228 36.3512C27.0995 36.3512 26.7894 36.4796 26.5608 36.7082C26.3322 36.9369 26.2037 37.2469 26.2037 37.5702C26.2074 38.9159 26.7436 40.2055 27.6952 41.157C28.6467 42.1086 29.9363 42.6448 31.282 42.6485V43.77C31.282 44.0933 31.4104 44.4034 31.639 44.632C31.8677 44.8606 32.1777 44.9891 32.501 44.9891C32.8244 44.9891 33.1344 44.8606 33.363 44.632C33.5917 44.4034 33.7201 44.0933 33.7201 43.77V42.5928C35.1292 42.4056 36.4227 41.7136 37.3604 40.6452C38.2981 39.5769 38.8164 38.2046 38.8192 36.7831C38.8203 35.634 38.4347 34.518 37.7246 33.6145C37.0145 32.7111 36.0211 32.0728 34.9043 31.8024L30.669 30.7644C30.082 30.6246 29.5596 30.2904 29.1865 29.8162C28.8135 29.342 28.6117 28.7555 28.614 28.1522V27.365C28.6158 26.666 28.8948 25.9963 29.3897 25.5026C29.8846 25.009 30.5551 24.7318 31.2541 24.7318H33.741C34.0874 24.7309 34.4305 24.7983 34.7508 24.9303C35.0711 25.0622 35.3622 25.256 35.6074 25.5006C35.8527 25.7452 36.0473 26.0358 36.18 26.3557C36.3128 26.6756 36.3811 27.0186 36.3811 27.365C36.3811 27.6883 36.5096 27.9984 36.7382 28.227C36.9668 28.4556 37.2769 28.5841 37.6002 28.5841C37.9235 28.5841 38.2336 28.4556 38.4622 28.227C38.6908 27.9984 38.8192 27.6883 38.8192 27.365C38.8174 26.0194 38.2815 24.7295 37.3294 23.7786C36.3772 22.8278 35.0866 22.2937 33.741 22.2937V21.1722C33.741 20.8489 33.6126 20.5388 33.3839 20.3102C33.1553 20.0816 32.8452 19.9531 32.5219 19.9531C32.1986 19.9531 31.8886 20.0816 31.6599 20.3102C31.4313 20.5388 31.3029 20.8489 31.3029 21.1722V22.2937C29.959 22.2974 28.6713 22.8329 27.721 23.7831C26.7708 24.7334 26.2353 26.0211 26.2316 27.365V28.1522C26.2228 29.3023 26.6015 30.4218 27.3066 31.3305C28.0118 32.2391 29.0023 32.8838 30.1187 33.1607L34.354 34.1917C34.9462 34.3271 35.4751 34.6589 35.8546 35.1333C36.2341 35.6076 36.4418 36.1965 36.4438 36.804C36.4365 37.7136 36.0685 38.5831 35.4207 39.2218C34.773 39.8604 33.8983 40.2159 32.9887 40.2104Z" stroke="#E85838"/>
</svg>
