<svg width="79" height="69" viewBox="0 0 79 69" fill="none" xmlns="http://www.w3.org/2000/svg">
<path d="M62.6729 2H16.3271C8.33241 2 1.84399 8.48841 1.84399 16.4831V39.656C1.84399 47.6506 8.33241 54.139 16.3271 54.139H22.1203C24.8238 54.139 27.4501 55.4522 29.0722 57.615L34.093 64.2965C35.3675 66.0345 37.3372 67 39.5 67C41.6628 67 43.6325 65.9958 44.907 64.2965L49.9278 57.615C51.5499 55.4522 54.1761 54.139 56.8796 54.139H62.6729C70.6675 54.139 77.1559 47.6506 77.1559 39.656V16.4831C77.1559 8.48841 70.6675 2 62.6729 2ZM71.3627 39.656C71.3627 44.445 67.4619 48.3458 62.6729 48.3458H56.8796C52.3609 48.3458 47.9967 50.5086 45.2932 54.139L40.2724 60.8206C39.7703 61.4771 39.2296 61.4771 38.7275 60.8206L33.7067 54.139C31.0032 50.5086 26.639 48.3458 22.1203 48.3458H16.3271C11.538 48.3458 7.63722 44.445 7.63722 39.656V16.4831C7.63722 11.694 11.538 7.79323 16.3271 7.79323H62.6729C67.4619 7.79323 71.3627 11.694 71.3627 16.4831V39.656Z" fill="#E85838" stroke="white" stroke-width="2.5"/>
<path d="M59.1196 16.1738H19.8801C18.2967 16.1738 16.9835 17.487 16.9835 19.0704C16.9835 20.6539 18.2967 21.9671 19.8801 21.9671H59.1196C60.7031 21.9671 62.0162 20.6539 62.0162 19.0704C62.0162 17.487 60.7031 16.1738 59.1196 16.1738Z" fill="#E85838" stroke="white" stroke-width="2.5"/>
<path d="M35.3287 31.6226H19.8801C18.2967 31.6226 16.9835 32.9357 16.9835 34.5192C16.9835 36.1027 18.2967 37.4158 19.8801 37.4158H35.3287C36.9122 37.4158 38.2254 36.1027 38.2254 34.5192C38.2254 32.9357 36.9122 31.6226 35.3287 31.6226Z" fill="#E85838" stroke="white" stroke-width="2.5"/>
</svg>
