<svg width="38" height="38" viewBox="0 0 38 38" fill="none" xmlns="http://www.w3.org/2000/svg">
<g clip-path="url(#clip0_0_291)">
<path d="M15.4572 35.4967C15.4572 36.2366 15.8684 36.8965 16.5107 37.3669C17.1531 37.8374 18.0341 38.125 19 38.125C19.9659 38.125 20.8469 37.8374 21.4893 37.3669C22.1316 36.8965 22.5428 36.2366 22.5428 35.4967C22.5428 34.7568 22.1316 34.0969 21.4893 33.6265C20.8469 33.156 19.9659 32.8684 19 32.8684C18.0337 32.8684 17.1528 33.156 16.5104 33.6265C15.8682 34.0969 15.4572 34.7569 15.4572 35.4967ZM16.5133 35.496C16.5133 35.0936 16.7756 34.7031 17.2313 34.4068C17.6848 34.1119 18.3135 33.9231 19 33.9231C19.6864 33.9231 20.3151 34.1119 20.7687 34.4068C21.2244 34.7031 21.4867 35.0936 21.4867 35.496C21.4867 35.8984 21.2244 36.2889 20.7687 36.5852C20.3151 36.8801 19.6864 37.0689 19 37.0689C18.3139 37.0689 17.6852 36.8801 17.2316 36.5852C16.7758 36.2889 16.5133 35.8983 16.5133 35.496Z" fill="white" stroke="white" stroke-width="0.25"/>
<path d="M14.5802 34.8808L14.5801 34.8812C14.5254 35.1278 14.3074 35.2958 14.0649 35.2958L14.5802 34.8808ZM14.5802 34.8808C14.6423 34.5961 14.4624 34.3148 14.1773 34.2525C11.6489 33.6991 9.63992 32.8566 8.26618 31.8231C6.89303 30.7902 6.16505 29.5758 6.16505 28.2729C6.16505 27.9815 5.92845 27.7449 5.637 27.7449C5.34554 27.7449 5.10895 27.9815 5.10895 28.2729C5.10895 29.9347 6.01085 31.4653 7.68559 32.7028C9.21088 33.8309 11.3796 34.721 13.9517 35.2837L14.5802 34.8808Z" fill="white" stroke="white" stroke-width="0.25"/>
<path d="M3.07564 27.3375H5.34519C5.79744 27.3375 6.16437 26.9699 6.16437 26.5191V16.8841C6.16437 16.4318 5.79665 16.0649 5.34519 16.0649H3.07564C1.31082 16.0649 -0.125 17.5008 -0.125 19.2656V24.1362C-0.125 25.9017 1.31081 27.3375 3.07564 27.3375ZM0.930391 19.2656C0.930391 18.083 1.89303 17.1203 3.07564 17.1203H5.10898V26.2814H3.07564C1.89303 26.2814 0.930391 25.3188 0.930391 24.1362V19.2656Z" fill="white" stroke="white" stroke-width="0.25"/>
<path d="M32.6541 27.3375H34.9236C36.6891 27.3375 38.125 25.9017 38.1243 24.1354C38.1243 24.1354 38.1243 24.1354 38.1243 24.1354V19.2649C38.1243 17.5 36.6884 16.0642 34.9236 16.0642H32.6541C32.2017 16.0642 31.8349 16.4319 31.8349 16.8834V26.5183C31.8349 26.9707 32.2026 27.3375 32.6541 27.3375ZM34.9243 26.2814H32.891V17.1203H34.9243C36.1069 17.1203 37.0696 18.0829 37.0696 19.2656V24.1362C37.0696 25.3188 36.1069 26.2814 34.9243 26.2814Z" fill="white" stroke="white" stroke-width="0.25"/>
<path d="M5.00954 15.298C4.98447 15.5887 5.19998 15.8438 5.49026 15.8689L5.49026 15.8689L5.13408 15.3087M5.00954 15.298L5.13408 15.3087M5.00954 15.298C5.00954 15.298 5.00954 15.298 5.00954 15.298L5.13408 15.3087M5.00954 15.298C5.30903 11.8086 6.89725 8.57374 9.48146 6.19035M5.13408 15.3087C5.43088 11.8506 7.00483 8.64457 9.56621 6.28224M9.48146 6.19035C9.48146 6.19035 9.48146 6.19035 9.48146 6.19036L9.56621 6.28224M9.48146 6.19035L9.56621 6.28224M9.48146 6.19035L9.56621 6.28224M32.9868 15.2623C32.9868 15.2622 32.9868 15.2622 32.9868 15.2621L32.8623 15.2733L32.9868 15.2623ZM31.9359 15.3549C31.936 15.355 31.936 15.355 31.936 15.3551L32.0605 15.3441L31.9359 15.3549Z" fill="white" stroke="white" stroke-width="0.25"/>
<path d="M2.81816 15.8563L2.8194 15.8564L2.82176 15.8566C2.83119 15.8572 2.84451 15.8581 2.85889 15.8581C3.13264 15.8581 3.36379 15.6476 3.38515 15.3708L3.38515 15.3708C4.00913 7.27379 10.8689 0.930391 19 0.930391C27.1212 0.930391 33.9796 7.26537 34.6141 15.3519C34.6366 15.6428 34.8904 15.8587 35.1811 15.8365L35.1811 15.8365C35.4723 15.8142 35.6882 15.5594 35.666 15.2695L35.6659 15.2693C35.3383 11.0877 33.4591 7.20653 30.3754 4.34196L30.2903 4.43355L30.3754 4.34196C27.2745 1.46158 23.2349 -0.125 19 -0.125C14.7616 -0.125 10.7191 1.46372 7.61815 4.34767C4.53236 7.21723 2.65522 11.1027 2.33262 15.2893L2.33262 15.2893C2.31036 15.5796 2.52732 15.834 2.81816 15.8563Z" fill="white" stroke="white" stroke-width="0.25"/>
</g>
<defs>
<clipPath id="clip0_0_291">
<rect width="38" height="38" fill="white"/>
</clipPath>
</defs>
</svg>
