<svg width="56" height="56" viewBox="0 0 56 56" fill="none" xmlns="http://www.w3.org/2000/svg">
<rect width="55.8631" height="55.8631" rx="15.01" fill="url(#paint0_linear_0_634)"/>
<path d="M21.1986 45.5042C21.1986 43.3623 21.7959 41.488 22.9905 39.8815C24.185 38.2751 25.8327 37.0187 27.9335 36.1125C30.0343 35.1651 32.444 34.6914 35.1627 34.6914C36.4808 34.6914 37.7783 34.8149 39.0553 35.0621C40.3322 35.2681 41.4444 35.577 42.3918 35.9889V34.5678C42.3918 32.7965 41.8563 31.4372 40.7854 30.4898C39.7144 29.5424 38.0873 29.0687 35.9041 29.0687C34.0917 29.0687 32.3822 29.3776 30.7757 29.9955C29.2104 30.6134 27.5422 31.499 25.7709 32.6524L22.8051 26.35C24.9471 24.9495 27.1714 23.8991 29.4782 23.1988C31.8261 22.4986 34.2976 22.1484 36.8927 22.1484C41.7534 22.1484 45.5224 23.3224 48.1999 25.6703C50.9186 27.9771 52.2779 31.3342 52.2779 35.7418V44.2067C52.2779 45.1953 52.4221 45.8956 52.7104 46.3075C53.0399 46.6782 53.596 46.9048 54.3787 46.9872V55.2049C53.5548 55.3697 52.7722 55.4933 52.0307 55.5757C51.3305 55.658 50.7126 55.6992 50.1771 55.6992C48.3235 55.6992 46.9023 55.3285 45.9137 54.5871C44.9663 53.8456 44.369 52.8364 44.1219 51.5595L43.9365 50.1383C42.4948 51.992 40.7648 53.4131 38.7464 54.4017C36.7691 55.3491 34.689 55.8228 32.5058 55.8228C30.3638 55.8228 28.4278 55.3697 26.6977 54.4635C25.0089 53.5573 23.6701 52.3215 22.6815 50.7562C21.6929 49.1909 21.1986 47.4403 21.1986 45.5042ZM40.8471 46.74C41.3003 46.3693 41.671 45.9574 41.9593 45.5042C42.2477 45.0511 42.3918 44.6186 42.3918 44.2067V41.3027C41.568 40.9731 40.6412 40.726 39.6114 40.5612C38.6228 40.3553 37.696 40.2523 36.8309 40.2523C35.0185 40.2523 33.515 40.6642 32.3204 41.488C31.1259 42.2707 30.5286 43.3211 30.5286 44.6392C30.5286 45.3807 30.7345 46.0603 31.1465 46.6782C31.5584 47.2961 32.1145 47.7904 32.8147 48.1611C33.5562 48.5318 34.4212 48.7172 35.4098 48.7172C36.3984 48.7172 37.387 48.5318 38.3756 48.1611C39.3642 47.7904 40.1881 47.3167 40.8471 46.74Z" fill="white"/>
<defs>
<linearGradient id="paint0_linear_0_634" x1="4.82017" y1="8.56919" x2="46.595" y2="53.0219" gradientUnits="userSpaceOnUse">
<stop stop-color="#FEA35C"/>
<stop offset="0.28125" stop-color="#E85838"/>
<stop offset="0.5625" stop-color="#8F002A"/>
<stop offset="1" stop-color="#001851"/>
</linearGradient>
</defs>
</svg>
