<svg width="137" height="59" viewBox="0 0 137 59" fill="none" xmlns="http://www.w3.org/2000/svg">
<rect y="0.0400391" width="51.2407" height="51.2407" rx="13.7552" fill="#E85838"/>
<path d="M19.4445 41.7787C19.4445 39.8139 19.9924 38.0948 21.0881 36.6212C22.1838 35.1477 23.6952 33.9953 25.6221 33.1641C27.5491 32.295 29.7594 31.8605 32.2531 31.8605C33.4622 31.8605 34.6524 31.9739 35.8236 32.2006C36.9949 32.3895 38.0151 32.6729 38.8841 33.0507V31.7472C38.8841 30.1225 38.3929 28.8756 37.4105 28.0066C36.4282 27.1376 34.9357 26.7031 32.9332 26.7031C31.2707 26.7031 29.7027 26.9865 28.2292 27.5532C26.7934 28.12 25.2632 28.9323 23.6385 29.9902L20.9181 24.2094C22.8828 22.9247 24.9231 21.9613 27.039 21.3189C29.1926 20.6766 31.4597 20.3555 33.84 20.3555C38.2985 20.3555 41.7556 21.4323 44.2116 23.586C46.7053 25.7018 47.9521 28.7812 47.9521 32.824V40.5885C47.9521 41.4953 48.0844 42.1376 48.3489 42.5155C48.6511 42.8555 49.1612 43.0633 49.8791 43.1389V50.6767C49.1234 50.8278 48.4055 50.9412 47.7254 51.0167C47.0831 51.0923 46.5164 51.1301 46.0252 51.1301C44.3249 51.1301 43.0214 50.79 42.1146 50.1099C41.2456 49.4298 40.6977 48.5041 40.471 47.3329L40.301 46.0293C38.9786 47.7296 37.3917 49.0331 35.5403 49.9399C33.7267 50.8089 31.8186 51.2434 29.8161 51.2434C27.8513 51.2434 26.0755 50.8278 24.4886 49.9966C22.9395 49.1653 21.7115 48.0318 20.8047 46.5961C19.8979 45.1603 19.4445 43.5545 19.4445 41.7787ZM37.4672 42.9122C37.8828 42.5721 38.2229 42.1943 38.4874 41.7787C38.7519 41.3631 38.8841 40.9663 38.8841 40.5885V37.9248C38.1284 37.6225 37.2783 37.3958 36.3337 37.2447C35.4269 37.0558 34.5768 36.9613 33.7833 36.9613C32.1209 36.9613 30.7418 37.3391 29.646 38.0948C28.5503 38.8127 28.0025 39.7762 28.0025 40.9852C28.0025 41.6653 28.1914 42.2888 28.5692 42.8555C28.9471 43.4223 29.4571 43.8757 30.0995 44.2157C30.7796 44.5558 31.573 44.7258 32.4798 44.7258C33.3866 44.7258 34.2934 44.5558 35.2002 44.2157C36.107 43.8757 36.8627 43.4412 37.4672 42.9122Z" fill="#1B1117"/>
<path d="M62.8371 51.5252C61.476 51.5252 60.2769 51.2012 59.2399 50.553C58.2029 49.9049 57.3819 49.0623 56.7769 48.0253V58.1039H53.2121V34.2521H56.3556V37.2984C57.0038 36.283 57.8464 35.4728 58.8834 34.8679C59.9204 34.2629 61.0763 33.9605 62.351 33.9605C63.5177 33.9605 64.5871 34.1981 65.5593 34.6734C66.5315 35.1271 67.3741 35.7645 68.0871 36.5855C68.8 37.4065 69.351 38.3463 69.7399 39.4049C70.1504 40.4419 70.3556 41.5438 70.3556 42.7105C70.3556 44.3308 70.0315 45.8108 69.3834 47.1503C68.7568 48.4898 67.871 49.5592 66.726 50.3586C65.6025 51.1364 64.3062 51.5252 62.8371 51.5252ZM61.6704 48.479C62.4266 48.479 63.1072 48.3169 63.7121 47.9928C64.3386 47.6688 64.868 47.2367 65.3001 46.6966C65.7538 46.1564 66.0994 45.5407 66.3371 44.8493C66.5747 44.158 66.6936 43.445 66.6936 42.7105C66.6936 41.9327 66.5639 41.1981 66.3047 40.5068C66.0454 39.8154 65.6673 39.2105 65.1704 38.6919C64.6951 38.1734 64.1334 37.7629 63.4852 37.4605C62.8587 37.158 62.1673 37.0068 61.4112 37.0068C60.9575 37.0068 60.4822 37.0932 59.9853 37.266C59.4883 37.4389 59.0238 37.6765 58.5917 37.979C58.1596 38.2815 57.7816 38.6379 57.4575 39.0484C57.1334 39.4589 56.9066 39.891 56.7769 40.3447V44.7845C57.0794 45.4759 57.4791 46.1024 57.976 46.6641C58.4729 47.2043 59.0454 47.6472 59.6936 47.9928C60.3417 48.3169 61.0007 48.479 61.6704 48.479ZM83.1866 51.5252C81.8255 51.5252 80.6264 51.2012 79.5894 50.553C78.5524 49.9049 77.7314 49.0623 77.1264 48.0253V58.1039H73.5616V34.2521H76.7052V37.2984C77.3533 36.283 78.1959 35.4728 79.2329 34.8679C80.27 34.2629 81.4258 33.9605 82.7005 33.9605C83.8672 33.9605 84.9366 34.1981 85.9088 34.6734C86.8811 35.1271 87.7236 35.7645 88.4366 36.5855C89.1496 37.4065 89.7005 38.3463 90.0894 39.4049C90.4999 40.4419 90.7051 41.5438 90.7051 42.7105C90.7051 44.3308 90.381 45.8108 89.7329 47.1503C89.1064 48.4898 88.2206 49.5592 87.0755 50.3586C85.952 51.1364 84.6557 51.5252 83.1866 51.5252ZM82.02 48.479C82.7761 48.479 83.4567 48.3169 84.0616 47.9928C84.6882 47.6688 85.2175 47.2367 85.6496 46.6966C86.1033 46.1564 86.449 45.5407 86.6866 44.8493C86.9243 44.158 87.0431 43.445 87.0431 42.7105C87.0431 41.9327 86.9135 41.1981 86.6542 40.5068C86.3949 39.8154 86.0169 39.2105 85.5199 38.6919C85.0446 38.1734 84.4829 37.7629 83.8348 37.4605C83.2082 37.158 82.5169 37.0068 81.7607 37.0068C81.307 37.0068 80.8317 37.0932 80.3348 37.266C79.8379 37.4389 79.3734 37.6765 78.9413 37.979C78.5092 38.2815 78.1311 38.6379 77.807 39.0484C77.4829 39.4589 77.2561 39.891 77.1264 40.3447V44.7845C77.4289 45.4759 77.8286 46.1024 78.3255 46.6641C78.8224 47.2043 79.395 47.6472 80.0431 47.9928C80.6913 48.3169 81.3502 48.479 82.02 48.479ZM93.9112 51.2012V34.2521H97.476V51.2012H93.9112ZM93.9112 31.4651V27.5438H97.476V31.4651H93.9112ZM102.732 37.4281H100.464V34.6734H102.732V33.9929C102.732 33.1071 102.872 32.2645 103.153 31.4651C103.434 30.6441 103.855 29.9204 104.417 29.2938C104.979 28.6457 105.659 28.138 106.459 27.7707C107.28 27.4034 108.23 27.2198 109.311 27.2198C110.11 27.2198 110.855 27.3062 111.547 27.479C112.26 27.6519 112.908 27.8895 113.491 28.192C114.096 28.4728 114.626 28.7753 115.079 29.0994L113.621 31.7568C113.146 31.3247 112.541 30.9682 111.806 30.6873C111.072 30.4065 110.315 30.266 109.538 30.266C108.803 30.266 108.187 30.4389 107.69 30.7846C107.215 31.1302 106.859 31.5839 106.621 32.1457C106.405 32.7074 106.297 33.2907 106.297 33.8957V34.6734H115.176V51.2012H111.612V37.4281H106.297V51.2012H102.732V37.4281ZM127.131 51.5252C125.814 51.5252 124.614 51.2984 123.534 50.8447C122.476 50.3694 121.557 49.7212 120.78 48.9003C120.002 48.0793 119.397 47.1395 118.965 46.0808C118.554 45.0222 118.349 43.8987 118.349 42.7105C118.349 41.1117 118.706 39.6534 119.419 38.3355C120.153 37.0176 121.168 35.9589 122.465 35.1595C123.783 34.3602 125.338 33.9605 127.131 33.9605C128.86 33.9605 130.361 34.3494 131.636 35.1271C132.932 35.8833 133.883 36.8987 134.488 38.1734L131.02 39.2753C130.631 38.5623 130.081 38.0114 129.368 37.6225C128.676 37.212 127.909 37.0068 127.067 37.0068C126.116 37.0068 125.252 37.2552 124.474 37.7521C123.718 38.2274 123.113 38.8972 122.659 39.7614C122.227 40.604 122.011 41.587 122.011 42.7105C122.011 43.7907 122.238 44.7737 122.692 45.6595C123.145 46.5237 123.75 47.2151 124.506 47.7336C125.284 48.2305 126.148 48.479 127.099 48.479C127.682 48.479 128.244 48.3817 128.784 48.1873C129.346 47.9712 129.832 47.6904 130.243 47.3447C130.653 46.9774 130.945 46.5777 131.118 46.1456L134.618 47.1827C134.25 48.0253 133.699 48.7706 132.965 49.4188C132.252 50.0669 131.398 50.5854 130.405 50.9743C129.432 51.3416 128.341 51.5252 127.131 51.5252Z" fill="white"/>
</svg>
