<svg width="120" height="50" viewBox="0 0 181 58" fill="none" xmlns="http://www.w3.org/2000/svg">
<rect width="55.8631" height="55.8631" rx="15.01" fill="url(#paint0_linear_0_637)"/>
<path d="M21.1986 45.5042C21.1986 43.3623 21.7959 41.488 22.9905 39.8815C24.185 38.2751 25.8327 37.0187 27.9335 36.1125C30.0343 35.1651 32.444 34.6914 35.1627 34.6914C36.4808 34.6914 37.7783 34.8149 39.0553 35.0621C40.3322 35.2681 41.4444 35.577 42.3918 35.9889V34.5678C42.3918 32.7965 41.8563 31.4372 40.7854 30.4898C39.7144 29.5424 38.0873 29.0687 35.9041 29.0687C34.0917 29.0687 32.3822 29.3776 30.7757 29.9955C29.2104 30.6134 27.5422 31.499 25.7709 32.6524L22.8051 26.35C24.9471 24.9495 27.1714 23.8991 29.4782 23.1988C31.8261 22.4986 34.2976 22.1484 36.8927 22.1484C41.7534 22.1484 45.5224 23.3224 48.1999 25.6703C50.9186 27.9771 52.2779 31.3342 52.2779 35.7418V44.2067C52.2779 45.1953 52.4221 45.8956 52.7104 46.3075C53.0399 46.6782 53.596 46.9048 54.3787 46.9872V55.2049C53.5548 55.3697 52.7722 55.4933 52.0307 55.5757C51.3305 55.658 50.7126 55.6992 50.1771 55.6992C48.3235 55.6992 46.9023 55.3285 45.9137 54.5871C44.9663 53.8456 44.369 52.8364 44.1219 51.5595L43.9365 50.1383C42.4948 51.992 40.7648 53.4131 38.7464 54.4017C36.7691 55.3491 34.689 55.8228 32.5058 55.8228C30.3638 55.8228 28.4278 55.3697 26.6977 54.4635C25.0089 53.5573 23.6701 52.3215 22.6815 50.7562C21.6929 49.1909 21.1986 47.4403 21.1986 45.5042ZM40.8471 46.74C41.3003 46.3693 41.671 45.9574 41.9593 45.5042C42.2477 45.0511 42.3918 44.6186 42.3918 44.2067V41.3027C41.568 40.9731 40.6412 40.726 39.6114 40.5612C38.6228 40.3553 37.696 40.2523 36.8309 40.2523C35.0185 40.2523 33.515 40.6642 32.3204 41.488C31.1259 42.2707 30.5286 43.3211 30.5286 44.6392C30.5286 45.3807 30.7345 46.0603 31.1465 46.6782C31.5584 47.2961 32.1145 47.7904 32.8147 48.1611C33.5562 48.5318 34.4212 48.7172 35.4098 48.7172C36.3984 48.7172 37.387 48.5318 38.3756 48.1611C39.3642 47.7904 40.1881 47.3167 40.8471 46.74Z" fill="white"/>
<path d="M77.7085 48.44C75.9779 48.44 74.4672 48.0733 73.1765 47.34C71.8859 46.5773 70.8739 45.5507 70.1405 44.26V57.372H63.1005V24.9H69.2165V28.64C70.0672 27.32 71.1379 26.2933 72.4285 25.56C73.7192 24.8267 75.2299 24.46 76.9605 24.46C78.5152 24.46 79.9379 24.768 81.2285 25.384C82.5485 26 83.6925 26.8507 84.6605 27.936C85.6285 29.0213 86.3765 30.2827 86.9045 31.72C87.4325 33.1573 87.6965 34.712 87.6965 36.384C87.6965 38.672 87.2712 40.7253 86.4205 42.544C85.5699 44.3627 84.3819 45.8 82.8565 46.856C81.3605 47.912 79.6445 48.44 77.7085 48.44ZM75.3325 42.5C76.0952 42.5 76.7845 42.3387 77.4005 42.016C78.0459 41.664 78.6032 41.2093 79.0725 40.652C79.5419 40.0947 79.8939 39.4493 80.1285 38.716C80.3925 37.9533 80.5245 37.1613 80.5245 36.34C80.5245 35.4893 80.3779 34.712 80.0845 34.008C79.8205 33.304 79.4392 32.688 78.9405 32.16C78.4419 31.6027 77.8552 31.1773 77.1805 30.884C76.5059 30.5907 75.7725 30.444 74.9805 30.444C74.5112 30.444 74.0272 30.5173 73.5285 30.664C73.0592 30.8107 72.6045 31.0307 72.1645 31.324C71.7539 31.588 71.3725 31.9107 71.0205 32.292C70.6685 32.6733 70.3752 33.1133 70.1405 33.612V38.364C70.4632 39.156 70.8885 39.86 71.4165 40.476C71.9445 41.092 72.5459 41.5907 73.2205 41.972C73.8952 42.324 74.5992 42.5 75.3325 42.5ZM105.853 48.44C104.122 48.44 102.612 48.0733 101.321 47.34C100.03 46.5773 99.0184 45.5507 98.2851 44.26V57.372H91.2451V24.9H97.3611V28.64C98.2117 27.32 99.2824 26.2933 100.573 25.56C101.864 24.8267 103.374 24.46 105.105 24.46C106.66 24.46 108.082 24.768 109.373 25.384C110.693 26 111.837 26.8507 112.805 27.936C113.773 29.0213 114.521 30.2827 115.049 31.72C115.577 33.1573 115.841 34.712 115.841 36.384C115.841 38.672 115.416 40.7253 114.565 42.544C113.714 44.3627 112.526 45.8 111.001 46.856C109.505 47.912 107.789 48.44 105.853 48.44ZM103.477 42.5C104.24 42.5 104.929 42.3387 105.545 42.016C106.19 41.664 106.748 41.2093 107.217 40.652C107.686 40.0947 108.038 39.4493 108.273 38.716C108.537 37.9533 108.669 37.1613 108.669 36.34C108.669 35.4893 108.522 34.712 108.229 34.008C107.965 33.304 107.584 32.688 107.085 32.16C106.586 31.6027 106 31.1773 105.325 30.884C104.65 30.5907 103.917 30.444 103.125 30.444C102.656 30.444 102.172 30.5173 101.673 30.664C101.204 30.8107 100.749 31.0307 100.309 31.324C99.8984 31.588 99.5171 31.9107 99.1651 32.292C98.8131 32.6733 98.5197 33.1133 98.2851 33.612V38.364C98.6077 39.156 99.0331 39.86 99.5611 40.476C100.089 41.092 100.69 41.5907 101.365 41.972C102.04 42.324 102.744 42.5 103.477 42.5ZM119.39 48V24.9H126.43V48H119.39ZM119.39 22.26V15.88H126.43V22.26H119.39ZM132.745 32.116H129.797V26.792H132.745V24.9C132.745 23.5213 132.98 22.26 133.449 21.116C133.918 19.972 134.578 18.9747 135.429 18.124C136.309 17.2733 137.35 16.6133 138.553 16.144C139.785 15.6747 141.164 15.44 142.689 15.44C143.804 15.44 144.874 15.572 145.901 15.836C146.928 16.0707 147.94 16.4227 148.937 16.892C149.934 17.3613 150.932 17.9333 151.929 18.608L149.201 23.932C148.35 23.14 147.382 22.524 146.297 22.084C145.241 21.6147 144.185 21.38 143.129 21.38C142.425 21.38 141.809 21.5267 141.281 21.82C140.782 22.084 140.401 22.4653 140.137 22.964C139.902 23.4627 139.785 24.02 139.785 24.636V26.792H152.545V48H145.505V32.116H139.785V48H132.745V32.116ZM168.375 48.44C166.41 48.44 164.664 48.1173 163.139 47.472C161.614 46.8267 160.308 45.9467 159.223 44.832C158.167 43.7173 157.36 42.4413 156.803 41.004C156.246 39.5667 155.967 38.0413 155.967 36.428C155.967 34.316 156.451 32.3507 157.419 30.532C158.416 28.7133 159.839 27.2467 161.687 26.132C163.535 25.0173 165.764 24.46 168.375 24.46C171.015 24.46 173.244 25.032 175.063 26.176C176.911 27.2907 178.29 28.7573 179.199 30.576L172.335 32.644C171.895 31.94 171.323 31.3973 170.619 31.016C169.944 30.6347 169.182 30.444 168.331 30.444C167.363 30.444 166.483 30.6933 165.691 31.192C164.928 31.6907 164.312 32.38 163.843 33.26C163.403 34.14 163.183 35.196 163.183 36.428C163.183 37.6307 163.418 38.6867 163.887 39.596C164.356 40.5053 164.972 41.224 165.735 41.752C166.498 42.2507 167.363 42.5 168.331 42.5C168.918 42.5 169.46 42.412 169.959 42.236C170.487 42.0307 170.956 41.752 171.367 41.4C171.807 41.048 172.144 40.652 172.379 40.212L179.243 42.324C178.686 43.4973 177.879 44.5533 176.823 45.492C175.796 46.4013 174.579 47.12 173.171 47.648C171.763 48.176 170.164 48.44 168.375 48.44Z" fill="#001851"/>
<defs>
<linearGradient id="paint0_linear_0_637" x1="4.82017" y1="8.56919" x2="46.595" y2="53.0219" gradientUnits="userSpaceOnUse">
<stop stop-color="#FEA35C"/>
<stop offset="0.28125" stop-color="#E85838"/>
<stop offset="0.5625" stop-color="#8F002A"/>
<stop offset="1" stop-color="#001851"/>
</linearGradient>
</defs>
</svg>
