<svg width="43" height="42" viewBox="0 0 43 42" fill="none" xmlns="http://www.w3.org/2000/svg">
<path d="M29.2937 14.3438C29.2937 18.6459 25.8021 22.1375 21.5 22.1375C17.1979 22.1375 13.7062 18.6459 13.7062 14.3438C13.7062 10.0417 17.1979 6.55 21.5 6.55C25.8021 6.55 29.2937 10.0417 29.2937 14.3438ZM26.4563 14.3438C26.4563 11.6121 24.2317 9.3875 21.5 9.3875C18.7684 9.3875 16.5438 11.6121 16.5438 14.3438C16.5438 17.0754 18.7684 19.3 21.5 19.3C24.2317 19.3 26.4563 17.0754 26.4563 14.3438Z" fill="#E85838" stroke="white" stroke-width="0.35"/>
<path d="M5.88903 34.0492L5.87949 34.0302L5.86565 34.0139C2.81017 30.4317 0.95625 25.7965 0.95625 20.7188C0.95625 9.3829 10.1642 0.175 21.5 0.175C32.8358 0.175 42.0438 9.3829 42.0438 20.7188C42.0438 25.7465 40.2109 30.3786 37.1866 33.9525H37.1083L37.0635 34.0602C36.9754 34.2716 36.7932 34.46 36.5542 34.6194L36.5368 34.631L36.5226 34.6464C32.7716 38.7135 27.42 41.2625 21.4788 41.2625C15.5379 41.2625 10.186 38.6925 6.43458 34.646L6.42298 34.6335L6.40918 34.6235C6.18887 34.4632 5.99972 34.2706 5.88903 34.0492ZM35.91 30.5898L36.0552 30.8109L36.2019 30.5908C38.09 27.7586 39.2062 24.3675 39.2062 20.7188C39.2062 10.9533 31.2654 3.0125 21.5 3.0125C11.7346 3.0125 3.79375 10.9533 3.79375 20.7188C3.79375 24.3665 4.88816 27.7795 6.799 30.5921L6.94658 30.8093L7.09025 30.5895C9.85774 26.3544 15.3652 23.55 21.5 23.55C27.6344 23.55 33.1423 26.3753 35.91 30.5898ZM8.95455 33.0296L8.89852 33.1423L8.98751 33.2312C12.2063 36.4501 16.6065 38.425 21.5 38.425C26.3936 38.425 30.815 36.4287 34.0125 33.2312L34.1015 33.1423L34.0454 33.0296C32.0745 29.0661 27.0937 26.3875 21.5 26.3875C15.9063 26.3875 10.9255 29.0661 8.95455 33.0296Z" fill="#E85838" stroke="white" stroke-width="0.35"/>
</svg>
