<svg width="52" height="52" viewBox="0 0 52 52" fill="none" xmlns="http://www.w3.org/2000/svg">
<path d="M35.9667 19.4999C35.9667 24.9971 31.4972 29.4666 26 29.4666C20.5028 29.4666 16.0333 24.9971 16.0333 19.4999C16.0333 14.0027 20.5028 9.53325 26 9.53325C31.4972 9.53325 35.9667 14.0027 35.9667 19.4999ZM33.3667 19.4999C33.3667 15.4421 30.0578 12.1333 26 12.1333C21.9422 12.1333 18.6333 15.4421 18.6333 19.4999C18.6333 23.5577 21.9422 26.8666 26 26.8666C30.0578 26.8666 33.3667 23.5577 33.3667 19.4999Z" fill="white" stroke="#E85838" stroke-width="0.65"/>
<path d="M39.6596 14.9056L39.6597 14.9057C42.0517 16.2993 43.55 18.9009 43.55 21.6666C43.55 25.9721 40.0555 29.4666 35.75 29.4666C35.0412 29.4666 34.45 28.8754 34.45 28.1666C34.45 27.4577 35.0412 26.8666 35.75 26.8666C38.6162 26.8666 40.95 24.5327 40.95 21.6666C40.95 19.8789 40.0018 18.2031 38.5017 17.2583V17.2313L38.3379 17.1377C37.7358 16.7937 37.5095 15.998 37.8714 15.3754C38.2388 14.7651 39.0397 14.544 39.6596 14.9056Z" fill="white" stroke="#E85838" stroke-width="0.65"/>
<path d="M16.25 29.4665H15.925V29.4815C11.77 29.3109 8.45 25.8848 8.45 21.6882C8.45 18.9004 9.92681 16.3218 12.3381 14.9286C12.9877 14.5605 13.7642 14.7723 14.1276 15.3953L14.1276 15.3953L14.1296 15.3987C14.4892 15.998 14.2869 16.794 13.6608 17.1601C12.0428 18.0853 11.05 19.818 11.05 21.6665C11.05 24.5327 13.3838 26.8665 16.25 26.8665C16.9588 26.8665 17.55 27.4577 17.55 28.1665C17.55 28.8753 16.9588 29.4665 16.25 29.4665Z" fill="white" stroke="#E85838" stroke-width="0.65"/>
<path d="M32.8164 41.2871L32.8164 41.2871L32.8156 41.2838C32.0427 38.1468 29.2244 35.9665 26 35.9665C22.8719 35.9665 20.126 38.0185 19.2591 41.0053L17.9335 40.8462L16.6838 40.5381C17.8157 36.3058 21.6204 33.3665 26 33.3665C30.4444 33.3665 34.2791 36.3635 35.3479 40.66L35.348 40.6603C35.5205 41.3502 35.088 42.0641 34.3928 42.2379L34.3807 42.2409L34.3689 42.2448C34.2966 42.2689 34.219 42.2715 34.0817 42.2715C33.4879 42.2715 32.9534 41.8694 32.8164 41.2871Z" fill="white" stroke="#E85838" stroke-width="0.65"/>
<path d="M16.4667 34.6665V34.9C16.3542 35.5006 15.8176 35.9665 15.1883 35.9665C13.2205 35.9665 11.529 37.2802 11.0595 39.1819L11.0594 39.1824L10.4968 41.4761C10.338 42.071 9.81594 42.4665 9.23001 42.4665C9.09268 42.4665 9.01505 42.4639 8.94278 42.4398L8.93005 42.4356L8.91702 42.4324C8.20615 42.259 7.79008 41.5495 7.96364 40.8553L7.96398 40.8539L8.52697 38.5587C8.52703 38.5584 8.52709 38.5582 8.52714 38.558C9.29294 35.4961 12.0229 33.3665 15.1667 33.3665C15.8755 33.3665 16.4667 33.9577 16.4667 34.6665Z" fill="white" stroke="#E85838" stroke-width="0.65"/>
<path d="M44.0577 40.8539L44.1155 41.0897C44.1509 41.6999 43.741 42.2787 43.1245 42.4329L43.1124 42.4359L43.1006 42.4398C43.0283 42.4639 42.9507 42.4665 42.8133 42.4665C42.2196 42.4665 41.6851 42.0644 41.548 41.4821L41.5481 41.4821L41.5473 41.4791L40.984 39.1824L40.9839 39.1819C40.514 37.2791 38.8001 35.9665 36.855 35.9665C36.1462 35.9665 35.555 35.3753 35.555 34.6665C35.555 33.9577 36.1462 33.3665 36.855 33.3665C39.9987 33.3665 42.7288 35.4961 43.4945 38.558C43.4946 38.5582 43.4947 38.5584 43.4947 38.5587L44.0577 40.8539Z" fill="white" stroke="#E85838" stroke-width="0.65"/>
</svg>
