<svg width="41" height="41" viewBox="0 0 41 41" fill="none" xmlns="http://www.w3.org/2000/svg">
<path d="M38.8251 17.3811L34.6998 16.8827C34.3562 15.5265 33.8183 14.2271 33.1027 13.0249L35.6857 9.77498C35.7714 9.66724 35.8144 9.53174 35.8065 9.39433C35.7986 9.25691 35.7405 9.1272 35.6431 9.02993L31.9947 5.38125C31.8978 5.28436 31.7688 5.2263 31.632 5.21804C31.4952 5.20978 31.3601 5.25188 31.2522 5.33641L27.9822 7.90147C26.7803 7.18545 25.4812 6.64678 24.1253 6.30215L23.6541 2.17813C23.6384 2.04143 23.5729 1.91529 23.4702 1.82373C23.3675 1.73218 23.2347 1.6816 23.0971 1.68164H17.9375C17.8005 1.6816 17.6682 1.73177 17.5657 1.82267C17.4631 1.91357 17.3975 2.03889 17.3811 2.17492L16.8824 6.29991C15.5263 6.64407 14.2269 7.18219 13.0245 7.89762L9.7753 5.3143C9.66748 5.22869 9.53194 5.18571 9.39449 5.19357C9.25704 5.20143 9.12729 5.25956 9.02993 5.35691L5.38125 9.00527C5.28429 9.10214 5.22619 9.23119 5.21793 9.368C5.20967 9.50481 5.25181 9.63991 5.33641 9.74775L7.90147 13.0178C7.1851 14.2196 6.64631 15.5187 6.30183 16.8747L2.17813 17.3459C2.04143 17.3616 1.91529 17.4271 1.82373 17.5298C1.73218 17.6325 1.6816 17.7653 1.68164 17.9029V23.0625C1.68167 23.1995 1.73187 23.3317 1.82275 23.4343C1.91363 23.5368 2.03891 23.6024 2.17492 23.6189L6.30023 24.1173C6.64382 25.4735 7.18174 26.7729 7.8973 27.9751L5.3143 31.225C5.22864 31.3328 5.18564 31.4683 5.19349 31.6057C5.20135 31.7431 5.25952 31.8728 5.35691 31.9701L9.00527 35.6184C9.10214 35.7154 9.23119 35.7735 9.368 35.7817C9.50481 35.79 9.63991 35.7479 9.74775 35.6633L13.0178 33.0985C14.2197 33.8145 15.5188 34.3532 16.8747 34.6978L17.3459 38.8219C17.3615 38.9586 17.427 39.0848 17.5297 39.1765C17.6324 39.2681 17.7653 39.3187 17.9029 39.3187H23.0625C23.1995 39.3187 23.3318 39.2685 23.4343 39.1777C23.5368 39.0868 23.6025 38.9614 23.6189 38.8254L24.1176 34.7004C25.4737 34.3563 26.7731 33.8181 27.9755 33.1027L31.2247 35.686C31.3326 35.7715 31.4681 35.8144 31.6055 35.8065C31.7429 35.7987 31.8726 35.7406 31.9701 35.6434L35.6184 31.9951C35.7154 31.8982 35.7735 31.7691 35.7817 31.6323C35.79 31.4955 35.7479 31.3604 35.6633 31.2526L33.0982 27.9825C33.8146 26.7807 34.3534 25.4816 34.6978 24.1256L38.8219 23.6541C38.9587 23.6385 39.085 23.5731 39.1767 23.4704C39.2684 23.3677 39.319 23.2348 39.319 23.0971V17.9375C39.319 17.8004 39.2687 17.6681 39.1776 17.5656C39.0866 17.463 38.9612 17.3974 38.8251 17.3811ZM38.1973 22.5971L34.1812 23.0561C34.0656 23.0693 33.957 23.118 33.8704 23.1957C33.7838 23.2733 33.7235 23.376 33.6978 23.4895C33.3597 24.9904 32.7661 26.422 31.9428 27.7218C31.8808 27.8195 31.8506 27.9341 31.8564 28.0497C31.8621 28.1653 31.9035 28.2764 31.9749 28.3675L34.4733 31.5533L31.5296 34.4967L28.3646 31.9806C28.2736 31.9082 28.1623 31.8659 28.0461 31.8596C27.9299 31.8533 27.8147 31.8833 27.7163 31.9454C26.4162 32.7683 24.9842 33.3615 23.4831 33.6991C23.3701 33.7246 23.2678 33.7845 23.1902 33.8706C23.1127 33.9566 23.0637 34.0646 23.05 34.1796L22.5657 38.1973H18.4016L17.9423 34.1809C17.9292 34.0653 17.8805 33.9567 17.8028 33.8701C17.7251 33.7835 17.6224 33.7233 17.5089 33.6978C16.0081 33.3597 14.5766 32.7661 13.277 31.9428C13.1791 31.881 13.0646 31.8509 12.949 31.8567C12.8334 31.8624 12.7224 31.9037 12.6312 31.9749L9.44537 34.4733L6.50234 31.5312L9.0184 28.3656C9.09073 28.2745 9.13298 28.1632 9.13929 28.0471C9.1456 27.9309 9.11567 27.8157 9.05363 27.7173C8.23071 26.4174 7.63759 24.9857 7.30024 23.4847C7.27486 23.3716 7.21501 23.2692 7.12895 23.1915C7.04289 23.1139 6.93486 23.0649 6.81977 23.0513L2.80273 22.5657V18.4016L6.81881 17.9439C6.93456 17.9309 7.04339 17.8822 7.13019 17.8046C7.21698 17.7269 7.27743 17.6241 7.30312 17.5105C7.64121 16.0096 8.23486 14.578 9.05812 13.2782C9.12011 13.1805 9.15032 13.0659 9.14458 12.9503C9.13885 12.8347 9.09745 12.7236 9.02609 12.6325L6.52765 9.44666L9.46876 6.50234L12.6341 9.0184C12.7251 9.09082 12.8365 9.13312 12.9526 9.13944C13.0688 9.14575 13.184 9.11576 13.2824 9.05363C14.5825 8.23077 16.0145 7.63756 17.5156 7.29992C17.6286 7.27439 17.7309 7.21449 17.8085 7.12845C17.886 7.04242 17.935 6.93447 17.9487 6.81945L18.4343 2.80273H22.5984L23.0561 6.81913C23.0691 6.9349 23.1178 7.04374 23.1955 7.13049C23.2733 7.21725 23.3761 7.27759 23.4898 7.30312C24.9906 7.64125 26.4221 8.23489 27.7218 9.05812C27.8195 9.12009 27.934 9.15028 28.0496 9.14454C28.1651 9.13881 28.2761 9.09743 28.3672 9.02609L31.5533 6.52765L34.4967 9.47068L31.9806 12.6363C31.9083 12.7274 31.8661 12.8387 31.8597 12.9549C31.8534 13.071 31.8834 13.1863 31.9454 13.2846C32.7683 14.5845 33.3614 16.0162 33.6988 17.5173C33.7242 17.6303 33.784 17.7327 33.8701 17.8104C33.9561 17.888 34.0642 17.937 34.1793 17.9506L38.1982 18.4362L38.1973 22.5971Z" fill="white" stroke="white" stroke-width="0.25"/>
<path d="M20.5 11.6113C18.742 11.6113 17.0235 12.1326 15.5617 13.1093C14.1 14.086 12.9607 15.4743 12.2879 17.0985C11.6152 18.7226 11.4392 20.5099 11.7821 22.2341C12.1251 23.9583 12.9717 25.5421 14.2148 26.7852C15.4579 28.0283 17.0417 28.8749 18.7659 29.2179C20.4901 29.5608 22.2774 29.3848 23.9016 28.7121C25.5257 28.0393 26.914 26.9 27.8907 25.4383C28.8674 23.9765 29.3887 22.258 29.3887 20.5C29.386 18.1434 28.4487 15.884 26.7823 14.2177C25.116 12.5513 22.8566 11.614 20.5 11.6113ZM20.5 28.2676C18.9637 28.2676 17.4619 27.812 16.1846 26.9585C14.9072 26.105 13.9116 24.8919 13.3237 23.4725C12.7358 22.0532 12.582 20.4914 12.8817 18.9846C13.1814 17.4779 13.9212 16.0938 15.0075 15.0075C16.0938 13.9212 17.4779 13.1814 18.9846 12.8817C20.4914 12.582 22.0532 12.7358 23.4725 13.3237C24.8919 13.9116 26.105 14.9072 26.9585 16.1846C27.812 17.4619 28.2676 18.9637 28.2676 20.5C28.2653 22.5594 27.4462 24.5338 25.99 25.99C24.5338 27.4462 22.5594 28.2653 20.5 28.2676Z" fill="white" stroke="white" stroke-width="0.25"/>
<path d="M20.5 14.4941C19.3122 14.4941 18.151 14.8464 17.1633 15.5063C16.1757 16.1662 15.4059 17.1042 14.9513 18.2017C14.4967 19.2991 14.3778 20.5067 14.6095 21.6717C14.8413 22.8367 15.4133 23.9068 16.2532 24.7468C17.0932 25.5867 18.1633 26.1587 19.3283 26.3905C20.4933 26.6222 21.7009 26.5033 22.7983 26.0487C23.8958 25.5941 24.8338 24.8243 25.4937 23.8367C26.1536 22.849 26.5059 21.6878 26.5059 20.5C26.5041 18.9077 25.8708 17.3811 24.7448 16.2552C23.6189 15.1293 22.0923 14.4959 20.5 14.4941ZM20.5 25.3848C19.5339 25.3848 18.5895 25.0983 17.7862 24.5615C16.9829 24.0248 16.3568 23.2619 15.9871 22.3693C15.6174 21.4767 15.5206 20.4946 15.7091 19.547C15.8976 18.5995 16.3628 17.7291 17.046 17.0459C17.7291 16.3628 18.5995 15.8976 19.547 15.7091C20.4946 15.5206 21.4767 15.6173 22.3693 15.9871C23.2619 16.3568 24.0248 16.9829 24.5615 17.7862C25.0983 18.5895 25.3848 19.5339 25.3848 20.5C25.3833 21.7951 24.8682 23.0367 23.9525 23.9525C23.0367 24.8682 21.7951 25.3833 20.5 25.3848Z" fill="white" stroke="white" stroke-width="0.25"/>
</svg>
